<?xml version="1.0" encoding="UTF-8" standalone="no"?>
<!-- Created with Inkscape (http://www.inkscape.org/) -->

<svg
      xmlns="http://www.w3.org/2000/svg"
      width="1227.779"
      height="497.25"
      version="1.1"
      viewBox="0 0 1227.779 497.25"
    >
      <g transform="translate(.089 -537.09)">
        <g>
          <g>
            <rect
              width="74.286"
              height="74.286"
              x="7.143"
              y="614.64"
              fill="#999"
              stroke="none"
              strokeLinecap="round"
              strokeLinejoin="round"
              strokeWidth="0.5"
              opacity="1"
              ry="9.498"
            ></rect>
            <g fill="#fff" transform="translate(-6.896 -7.55)">
              <path d="M26.482 658.91l3.856 5.113h-2.092l-4.457-5.113h2.693"></path>
              <path d="M41.316 631.94v2.434c-.957.72-1.846 1.235-2.666 1.544a7.065 7.065 0 01-2.543.465c-1.003 0-2.17-.269-3.5-.806a8.496 8.496 0 01-.219-.082 4.28 4.28 0 00-.3-.11c-1.413-.565-2.548-.847-3.405-.847a5.71 5.71 0 00-2.379.533c-.784.346-1.622.898-2.515 1.654v-2.433c.957-.72 1.84-1.235 2.652-1.545a6.994 6.994 0 012.557-.479c1.002 0 2.173.274 3.513.82l.205.082c.073.028.174.064.301.11 1.413.565 2.548.848 3.404.847a5.59 5.59 0 002.325-.519c.774-.346 1.631-.902 2.57-1.668"></path>
            </g>
          </g>
          <g transform="translate(3.05)">
            <rect
              width="74.286"
              height="74.286"
              x="83.017"
              y="614.64"
              fill="#999"
              stroke="none"
              strokeLinecap="round"
              strokeLinejoin="round"
              strokeWidth="0.5"
              opacity="1"
              ry="9.498"
            ></rect>
            <g fill="#fff" transform="translate(-34.723 -.215)">
              <path d="M127.887 678.98h4.512v-15.572l-4.909.984v-2.515l4.881-.985h2.762v18.088h4.512v2.325h-11.758v-2.325"></path>
              <path d="M132.18 639.63h2.775v3.473h-2.775v-3.473m0-16.939h2.775v8.955l-.273 4.881h-2.215l-.287-4.88v-8.956"></path>
            </g>
          </g>
          <g transform="translate(6.104)">
            <rect
              width="74.286"
              height="74.286"
              x="158.887"
              y="614.64"
              fill="#999"
              stroke="none"
              strokeLinecap="round"
              strokeLinejoin="round"
              strokeWidth="0.5"
              opacity="1"
              ry="9.498"
            ></rect>
            <g fill="#fff" transform="translate(-15.288 -.567)">
              <path d="M192.866 678.98h9.639v2.324h-12.961v-2.324a534.305 534.305 0 014.28-4.361c1.813-1.832 2.952-3.013 3.417-3.541.884-.994 1.5-1.832 1.846-2.516.355-.693.533-1.372.533-2.037 0-1.085-.383-1.969-1.148-2.652-.757-.684-1.746-1.026-2.967-1.026-.866 0-1.782.15-2.748.451-.957.301-1.982.757-3.076 1.368v-2.79a21.94 21.94 0 013.117-1.011c.966-.228 1.85-.342 2.652-.342 2.115 0 3.801.529 5.059 1.586s1.887 2.47 1.887 4.238c0 .839-.16 1.636-.479 2.393-.31.747-.88 1.631-1.709 2.652-.228.265-.952 1.03-2.174 2.297a1730.877 1730.877 0 01-5.168 5.291"></path>
              <path d="M192.497 635.77c0 1.303.324 2.329.97 3.076.648.738 1.537 1.108 2.667 1.108 1.12 0 2-.374 2.638-1.122.648-.747.971-1.768.971-3.062 0-1.276-.328-2.288-.984-3.035-.657-.757-1.54-1.135-2.653-1.135-1.102 0-1.982.374-2.638 1.121-.647.747-.971 1.764-.971 3.049m7.451 4.088c-.547.702-1.176 1.221-1.886 1.558-.702.329-1.523.493-2.461.493-1.568 0-2.844-.566-3.828-1.696-.976-1.139-1.463-2.62-1.463-4.443 0-1.823.492-3.304 1.476-4.444.985-1.139 2.256-1.709 3.815-1.709.938 0 1.763.174 2.474.52.711.337 1.336.852 1.873 1.545v-1.791h1.955v10.062c1.331-.2 2.37-.807 3.118-1.818.756-1.021 1.134-2.338 1.134-3.952 0-.975-.146-1.891-.437-2.748a7.594 7.594 0 00-1.299-2.379 9.39 9.39 0 00-3.473-2.734c-1.358-.638-2.839-.957-4.443-.957-1.121 0-2.197.15-3.227.451-1.03.292-1.982.73-2.857 1.313a9.849 9.849 0 00-3.363 3.664c-.802 1.504-1.203 3.135-1.203 4.894 0 1.45.26 2.808.779 4.074a10 10 0 002.283 3.35 9.689 9.689 0 003.322 2.16c1.258.502 2.603.752 4.034.752 1.175 0 2.328-.2 3.459-.601a10.754 10.754 0 003.13-1.696l1.23 1.518a12.912 12.912 0 01-3.731 2.023c-1.34.474-2.703.711-4.088.711-1.687 0-3.277-.3-4.772-.902a11.983 11.983 0 01-3.992-2.598 11.603 11.603 0 01-2.666-3.95c-.61-1.505-.916-3.118-.916-4.84 0-1.66.31-3.24.93-4.745a11.932 11.932 0 012.652-3.965 12.11 12.11 0 014.074-2.652 12.99 12.99 0 014.895-.93c1.932 0 3.723.397 5.373 1.19a11.379 11.379 0 014.17 3.377 10.103 10.103 0 011.558 2.912 9.836 9.836 0 01.547 3.254c0 2.397-.725 4.288-2.174 5.673-1.449 1.386-3.45 2.106-6.002 2.16v-2.105"></path>
            </g>
          </g>
          <g transform="translate(5.548)">
            <rect
              width="74.286"
              height="74.286"
              x="238.367"
              y="614.64"
              fill="#999"
              stroke="none"
              strokeLinecap="round"
              strokeLinejoin="round"
              strokeWidth="0.5"
              opacity="1"
              ry="9.498"
            ></rect>
            <g fill="#fff" transform="translate(-17.814 -.574)">
              <path d="M278.017 670.3c1.322.283 2.352.87 3.09 1.764.747.893 1.12 1.996 1.12 3.308 0 2.015-.692 3.573-2.077 4.676-1.386 1.103-3.354 1.654-5.906 1.654a14.2 14.2 0 01-2.653-.26 18.634 18.634 0 01-2.802-.751v-2.666a9.568 9.568 0 002.515 1.011c.912.228 1.864.342 2.858.342 1.731 0 3.048-.342 3.95-1.025.912-.684 1.368-1.677 1.368-2.98 0-1.204-.424-2.143-1.272-2.817-.838-.684-2.01-1.026-3.513-1.026h-2.38v-2.269h2.49c1.357 0 2.396-.269 3.116-.807.72-.547 1.08-1.33 1.08-2.351 0-1.048-.373-1.85-1.12-2.406-.739-.566-1.8-.848-3.186-.848-.757 0-1.568.082-2.434.246-.866.164-1.818.42-2.857.766V661.4a26.857 26.857 0 012.94-.657c.92-.145 1.786-.218 2.597-.218 2.096 0 3.755.478 4.976 1.435 1.222.948 1.832 2.233 1.832 3.856 0 1.13-.323 2.087-.97 2.87-.647.776-1.568 1.313-2.762 1.614"></path>
              <path d="M278.085 630.79h-3.978l-1.149 4.566h4.006l1.121-4.566m-2.05-7.78l-1.422 5.674h3.992l1.436-5.673h2.187l-1.408 5.673h4.265v2.106h-4.798l-1.121 4.566h4.347v2.092h-4.88l-1.423 5.66h-2.187l1.408-5.66h-4.006l-1.408 5.66h-2.201l1.422-5.66h-4.307v-2.092h4.813l1.148-4.566h-4.402v-2.106h4.935l1.395-5.673h2.214"></path>
            </g>
          </g>
          <g transform="translate(12.213)">
            <rect
              width="74.286"
              height="74.286"
              x="310.627"
              y="614.64"
              fill="#999"
              stroke="none"
              strokeLinecap="round"
              strokeLinejoin="round"
              strokeWidth="0.5"
              opacity="1"
              ry="9.498"
            ></rect>
            <g fill="#fff" transform="translate(-16.525 -1.216)">
              <path d="M346.117 664.73l-6.973 10.896h6.973V664.73m-.725-2.406h3.473v13.303h2.912v2.297h-2.912v4.812h-2.748v-4.812h-9.215v-2.666l8.49-12.934"></path>
              <path d="M344.894 648.65h-1.368l-.013-4.115a15.4 15.4 0 01-2.871-.328c-.957-.21-1.919-.52-2.885-.93v-2.46c.93.582 1.868 1.024 2.816 1.325.957.292 1.942.442 2.953.451v-6.234c-2.014-.328-3.482-.884-4.402-1.668-.911-.784-1.367-1.86-1.367-3.227 0-1.485.497-2.656 1.49-3.513.993-.857 2.42-1.35 4.28-1.477v-3.213h1.366v3.172c.848.037 1.668.128 2.461.274a16.65 16.65 0 012.325.574v2.392a11.745 11.745 0 00-2.338-.888 11.504 11.504 0 00-2.448-.37v5.839c2.07.319 3.591.888 4.567 1.709.975.82 1.463 1.94 1.463 3.363 0 1.54-.52 2.757-1.559 3.65-1.03.884-2.52 1.395-4.47 1.531v4.143m-1.368-14.643v-5.606c-1.057.119-1.864.42-2.42.903-.556.483-.834 1.126-.834 1.928 0 .783.256 1.394.766 1.832.52.437 1.349.751 2.488.943m1.367 2.625v5.92c1.158-.155 2.028-.483 2.612-.985.592-.5.888-1.162.888-1.982 0-.802-.282-1.44-.847-1.914-.556-.474-1.44-.82-2.653-1.04"></path>
            </g>
          </g>
          <g transform="translate(15.267)">
            <rect
              width="74.286"
              height="74.286"
              x="386.497"
              y="614.64"
              fill="#999"
              stroke="none"
              strokeLinecap="round"
              strokeLinejoin="round"
              strokeWidth="0.5"
              opacity="1"
              ry="9.498"
            ></rect>
            <g fill="#fff" transform="translate(-4.605 -.232)">
              <path d="M406.867 660.9h10.842v2.324h-8.313v5.004a7.261 7.261 0 011.204-.3c.4-.074.802-.11 1.203-.11 2.278 0 4.083.624 5.414 1.873 1.33 1.249 1.996 2.94 1.996 5.072 0 2.197-.684 3.906-2.05 5.127-1.368 1.212-3.296 1.819-5.784 1.819-.857 0-1.732-.073-2.625-.22-.884-.145-1.8-.364-2.748-.655v-2.776c.82.447 1.668.78 2.543.998.875.219 1.8.328 2.775.328 1.577 0 2.826-.414 3.746-1.244.921-.83 1.381-1.955 1.381-3.377 0-1.422-.46-2.547-1.38-3.377-.921-.83-2.17-1.244-3.747-1.244-.738 0-1.476.082-2.214.246-.73.164-1.477.42-2.243.766V660.9"></path>
              <path d="M419.664 634.12c-.793 0-1.417.337-1.873 1.012-.447.674-.67 1.613-.67 2.816 0 1.185.223 2.12.67 2.803.456.674 1.08 1.012 1.873 1.012.775 0 1.385-.338 1.832-1.012.456-.684.684-1.618.684-2.803 0-1.194-.228-2.128-.684-2.803-.447-.683-1.057-1.025-1.832-1.025m0-1.736c1.44 0 2.584.501 3.432 1.504.847 1.002 1.271 2.356 1.271 4.06 0 1.705-.428 3.058-1.285 4.06-.848.994-1.987 1.49-3.418 1.49-1.459 0-2.612-.496-3.46-1.49-.847-1.002-1.27-2.355-1.27-4.06 0-1.713.423-3.067 1.27-4.06.858-1.003 2.01-1.504 3.46-1.504m-14.11-8.326c-.783 0-1.403.341-1.859 1.025-.446.674-.67 1.604-.67 2.789 0 1.203.224 2.142.67 2.816.447.675 1.067 1.012 1.86 1.012.793 0 1.413-.337 1.86-1.012.455-.674.683-1.613.683-2.816 0-1.176-.228-2.105-.684-2.79-.455-.683-1.075-1.024-1.86-1.024m12.347-1.737h2.187l-12.77 21.178h-2.187l12.77-21.178m-12.346 0c1.44 0 2.588.502 3.445 1.504.857.994 1.285 2.343 1.285 4.047 0 1.723-.428 3.08-1.285 4.074-.848.994-1.996 1.49-3.445 1.49-1.45 0-2.598-.496-3.445-1.49-.839-1.002-1.258-2.36-1.258-4.074 0-1.695.424-3.044 1.271-4.047.848-1.002 1.992-1.504 3.432-1.504"></path>
            </g>
          </g>
          <g transform="translate(18.32)">
            <rect
              width="74.286"
              height="74.286"
              x="462.367"
              y="614.64"
              fill="#999"
              stroke="none"
              strokeLinecap="round"
              strokeLinejoin="round"
              strokeWidth="0.5"
              opacity="1"
              ry="9.498"
            ></rect>
            <g fill="#fff" transform="translate(-15.567 3.867)">
              <path d="M496.687 665.72c-1.24 0-2.224.424-2.953 1.272-.72.847-1.08 2.01-1.08 3.486 0 1.467.36 2.63 1.08 3.486.73.848 1.713 1.272 2.953 1.272 1.24 0 2.22-.424 2.94-1.272.729-.857 1.093-2.019 1.093-3.486 0-1.477-.364-2.639-1.094-3.486-.72-.848-1.7-1.272-2.939-1.272m5.482-8.654v2.515a10.988 10.988 0 00-2.105-.752 8.708 8.708 0 00-2.092-.26c-1.823 0-3.217.616-4.183 1.846-.958 1.23-1.504 3.09-1.641 5.578a5.44 5.44 0 012.023-1.818c.811-.428 1.705-.643 2.68-.643 2.05 0 3.669.625 4.854 1.873 1.194 1.24 1.79 2.93 1.79 5.073 0 2.096-.62 3.778-1.859 5.045-1.24 1.266-2.89 1.9-4.95 1.9-2.36 0-4.164-.902-5.413-2.707-1.249-1.814-1.873-4.439-1.873-7.875 0-3.227.765-5.797 2.297-7.71 1.53-1.924 3.586-2.886 6.166-2.886.692 0 1.39.069 2.091.205.711.137 1.45.342 2.215.616"></path>
              <path d="M497.787 618.41l7.424 7.615h-2.748l-6.015-5.4-6.016 5.4h-2.748l7.424-7.615h2.68"></path>
            </g>
          </g>
          <g transform="translate(21.375)">
            <rect
              width="74.286"
              height="74.286"
              x="538.237"
              y="614.64"
              fill="#999"
              stroke="none"
              strokeLinecap="round"
              strokeLinejoin="round"
              strokeWidth="0.5"
              opacity="1"
              ry="9.498"
            ></rect>
            <g fill="#fff" transform="translate(-15.508 -.037)">
              <path d="M566.537 660.9h13.125v1.176l-7.41 19.236h-2.885l6.973-18.088h-9.803V660.9"></path>
              <path d="M568.54 632.13c-.83.738-1.44 1.477-1.832 2.215a4.875 4.875 0 00-.574 2.297c0 1.33.483 2.438 1.449 3.322.966.884 2.178 1.326 3.637 1.326.865 0 1.677-.141 2.433-.424a7.111 7.111 0 002.133-1.312l-7.246-7.424m1.928-1.531l6.945 7.11a10.69 10.69 0 001.258-2.598c.3-.93.478-1.914.533-2.953h2.543a12.546 12.546 0 01-.875 3.568c-.474 1.176-1.135 2.338-1.982 3.486l3.814 3.897h-3.445l-1.955-2.01c-.948.811-1.942 1.417-2.98 1.818a9.413 9.413 0 01-3.35.588c-2.197 0-3.993-.624-5.387-1.873-1.395-1.258-2.092-2.866-2.092-4.826 0-1.167.305-2.26.916-3.281.61-1.03 1.527-1.996 2.748-2.899a7.42 7.42 0 01-.998-1.709 4.542 4.542 0 01-.342-1.681c0-1.477.506-2.662 1.518-3.555 1.012-.902 2.356-1.353 4.033-1.353.757 0 1.509.082 2.256.246.756.164 1.522.41 2.297.738v2.488a12.388 12.388 0 00-2.27-.97c-.72-.228-1.39-.342-2.01-.342-.956 0-1.736.255-2.337.765-.593.502-.889 1.153-.889 1.956 0 .464.132.934.396 1.408.274.465.825 1.125 1.655 1.982"></path>
            </g>
          </g>
          <g transform="translate(24.429)">
            <rect
              width="74.286"
              height="74.286"
              x="614.107"
              y="614.64"
              fill="#999"
              stroke="none"
              strokeLinecap="round"
              strokeLinejoin="round"
              strokeWidth="0.5"
              opacity="1"
              ry="9.498"
            ></rect>
            <g fill="#fff" transform="translate(-14.99 -.236)">
              <path d="M645.847 671.62c-1.313 0-2.347.35-3.103 1.053-.748.702-1.122 1.668-1.122 2.898 0 1.23.374 2.197 1.122 2.898.756.702 1.79 1.053 3.103 1.053 1.313 0 2.347-.35 3.103-1.053.757-.71 1.135-1.677 1.135-2.898 0-1.23-.378-2.197-1.134-2.898-.748-.702-1.782-1.053-3.104-1.053m-2.762-1.176c-1.185-.291-2.11-.843-2.775-1.654-.656-.811-.984-1.8-.984-2.967 0-1.631.578-2.921 1.736-3.869 1.167-.948 2.762-1.422 4.785-1.422 2.033 0 3.628.474 4.785 1.422 1.158.948 1.737 2.238 1.737 3.87 0 1.166-.333 2.155-.999 2.966-.656.811-1.572 1.363-2.748 1.654 1.331.31 2.366.916 3.104 1.819.747.902 1.121 2.005 1.121 3.308 0 1.978-.606 3.496-1.818 4.553-1.203 1.057-2.93 1.586-5.182 1.586-2.251 0-3.983-.529-5.195-1.586-1.203-1.057-1.805-2.575-1.805-4.553 0-1.303.374-2.406 1.121-3.308.748-.903 1.787-1.509 3.117-1.819m-1.011-4.361c0 1.057.328 1.882.984 2.475.665.592 1.595.888 2.79.888 1.184 0 2.11-.296 2.775-.888.674-.593 1.011-1.418 1.011-2.475 0-1.057-.337-1.882-1.011-2.475-.666-.592-1.591-.888-2.776-.888-1.194 0-2.124.296-2.789.888-.656.593-.984 1.418-.984 2.475"></path>
              <path d="M652.013 626.06l-4.908 2.652 4.908 2.666-.793 1.34-4.594-2.775v5.154h-1.558v-5.154l-4.594 2.775-.793-1.34 4.908-2.666-4.908-2.652.793-1.353 4.594 2.775v-5.154h1.558v5.154l4.594-2.776.793 1.354"></path>
            </g>
          </g>
          <g transform="translate(27.483)">
            <rect
              width="74.286"
              height="74.286"
              x="689.977"
              y="614.64"
              fill="#999"
              stroke="none"
              strokeLinecap="round"
              strokeLinejoin="round"
              strokeWidth="0.5"
              opacity="1"
              ry="9.498"
            ></rect>
            <g fill="#fff" transform="translate(-20.777 .003)">
              <path d="M721.817 680.88v-2.516c.693.329 1.395.58 2.106.752.71.174 1.408.26 2.091.26 1.823 0 3.213-.61 4.17-1.832.966-1.23 1.518-3.094 1.655-5.592a5.373 5.373 0 01-2.01 1.805c-.812.42-1.71.629-2.694.629-2.041 0-3.66-.615-4.853-1.846-1.185-1.24-1.778-2.93-1.778-5.072 0-2.096.62-3.778 1.86-5.045 1.24-1.267 2.89-1.9 4.949-1.9 2.36 0 4.16.907 5.4 2.72 1.25 1.805 1.873 4.43 1.873 7.875 0 3.218-.765 5.788-2.296 7.711-1.523 1.914-3.573 2.871-6.153 2.871-.693 0-1.394-.068-2.105-.205a15.05 15.05 0 01-2.215-.615m5.496-8.654c1.24 0 2.22-.424 2.94-1.272.729-.847 1.093-2.01 1.093-3.486 0-1.467-.364-2.625-1.094-3.473-.72-.856-1.7-1.285-2.939-1.285-1.24 0-2.224.428-2.953 1.285-.72.848-1.08 2.006-1.08 3.473 0 1.477.36 2.639 1.08 3.486.73.848 1.713 1.272 2.953 1.272"></path>
              <path d="M730.683 621.86c-1.221 2.096-2.128 4.17-2.72 6.22a22.357 22.357 0 00-.89 6.235c0 2.106.297 4.193.89 6.262.601 2.06 1.508 4.133 2.72 6.22h-2.187c-1.368-2.141-2.393-4.247-3.077-6.316-.674-2.069-1.011-4.124-1.011-6.166 0-2.032.337-4.079 1.011-6.139.675-2.06 1.7-4.165 3.077-6.316h2.187"></path>
            </g>
          </g>
          <g transform="translate(30.537)">
            <rect
              width="74.286"
              height="74.286"
              x="765.847"
              y="614.64"
              fill="#999"
              stroke="none"
              strokeLinecap="round"
              strokeLinejoin="round"
              strokeWidth="0.5"
              opacity="1"
              ry="9.498"
            ></rect>
            <g fill="#fff" transform="translate(-19.155 .003)">
              <path d="M801.807 662.71c-1.422 0-2.493.702-3.213 2.106-.71 1.394-1.066 3.495-1.066 6.302 0 2.798.355 4.9 1.066 6.303.72 1.394 1.791 2.092 3.213 2.092 1.431 0 2.502-.698 3.213-2.092.72-1.404 1.08-3.505 1.08-6.303 0-2.807-.36-4.908-1.08-6.303-.711-1.403-1.782-2.105-3.213-2.105m0-2.188c2.288 0 4.033.907 5.236 2.721 1.213 1.805 1.819 4.43 1.819 7.875 0 3.436-.606 6.061-1.819 7.875-1.203 1.805-2.948 2.707-5.236 2.707s-4.038-.902-5.25-2.707c-1.203-1.814-1.805-4.439-1.805-7.875 0-3.445.602-6.07 1.805-7.875 1.212-1.814 2.962-2.72 5.25-2.72"></path>
              <path d="M798.67 621.86h2.187c1.367 2.151 2.388 4.256 3.062 6.316.684 2.06 1.026 4.107 1.026 6.14 0 2.04-.342 4.096-1.026 6.165-.674 2.07-1.695 4.175-3.062 6.317h-2.188c1.213-2.088 2.115-4.161 2.707-6.221.602-2.07.903-4.156.903-6.262 0-2.105-.301-4.183-.903-6.234-.592-2.051-1.494-4.125-2.707-6.221"></path>
            </g>
          </g>
          <rect
            width="141.17"
            height="74.286"
            x="4.911"
            y="700.51"
            fill="#999"
            stroke="none"
            strokeLinecap="round"
            strokeLinejoin="round"
            strokeWidth="0.689"
            opacity="1"
            ry="9.498"
          ></rect>
          <g transform="translate(3.164)">
            <rect
              width="74.286"
              height="74.286"
              x="147.667"
              y="700.51"
              fill="#8dd35f"
              stroke="none"
              strokeLinecap="round"
              strokeLinejoin="round"
              strokeWidth="0.5"
              opacity="1"
              ry="9.498"
            ></rect>
            <path
              fill="#fff"
              d="M176.968 730.371l-.793 1.846a15.595 15.595 0 01-4.28-2.474c-1.512.829-3.153 1.244-4.921 1.244-2.799 0-5.09-.969-6.877-2.906-1.787-1.936-2.68-4.422-2.68-7.458 0-3.007.866-5.487 2.598-7.437 1.731-1.95 4.07-2.926 7.013-2.926 2.798 0 5.093.952 6.884 2.857 1.791 1.905 2.687 4.398 2.687 7.479 0 3.3-1.008 5.929-3.022 7.889 1.13.81 2.26 1.44 3.39 1.886zm-5.469-3.335c1.568-1.45 2.352-3.587 2.352-6.413 0-2.524-.632-4.504-1.894-5.94-1.262-1.435-2.905-2.153-4.929-2.153-2.023 0-3.673.688-4.949 2.064-1.276 1.376-1.914 3.386-1.914 6.03 0 2.588.638 4.584 1.914 5.988 1.276 1.403 2.926 2.105 4.95 2.105.993 0 1.886-.178 2.68-.533-.885-.565-1.76-.948-2.626-1.148l.643-1.942c1.631.465 2.889 1.112 3.773 1.942z"
            ></path>
          </g>
          <g transform="translate(6.33)">
            <rect
              width="74.286"
              height="74.286"
              x="223.537"
              y="700.51"
              fill="#ffd42a"
              stroke="none"
              strokeLinecap="round"
              strokeLinejoin="round"
              strokeWidth="0.5"
              opacity="1"
              ry="9.498"
            ></rect>
            <path
              fill="#fff"
              d="M259.072 710.26l-5.523 20.043h-2.543l-4.375-15.791c-.228-.811-.374-1.426-.438-1.846h-.054l-.561 2.38-4.266 15.257h-2.68l-5.345-20.043h2.707l3.09 13.152c.41 1.723.67 2.99.78 3.801.017.164.026.26.026.287h.055c.365-1.732.652-2.971.861-3.719l3.815-13.52h3.226l2.844 10.13c.711 2.516 1.226 4.886 1.545 7.11h.055c.191-1.085.51-2.539.957-4.362l3.158-12.879z"
            ></path>
          </g>
          <g transform="translate(9.495)">
            <rect
              width="74.286"
              height="74.286"
              x="299.407"
              y="700.51"
              fill="#ff7f2a"
              stroke="none"
              strokeLinecap="round"
              strokeLinejoin="round"
              strokeWidth="0.5"
              opacity="1"
              ry="9.498"
            ></rect>
            <path
              fill="#fff"
              d="M324.128 730.303h-14.971V710.26h14.506v2.379h-11.854v6.125h11.088v2.379h-11.088v6.781h12.318z"
            ></path>
          </g>
          <g transform="translate(12.66)">
            <rect
              width="74.286"
              height="74.286"
              x="375.277"
              y="700.51"
              fill="#c83737"
              stroke="none"
              strokeLinecap="round"
              strokeLinejoin="round"
              strokeWidth="0.5"
              opacity="1"
              ry="9.498"
            ></rect>
            <path
              fill="#fff"
              d="M402.691 730.303h-3.336c-1.996-3.154-3.236-5.09-3.719-5.81a11.364 11.364 0 00-1.524-1.853c-.533-.515-1.035-.84-1.504-.978-.47-.136-1.091-.205-1.866-.205h-3.063v8.846h-2.652V710.26h8.873c1.212 0 2.229.078 3.049.232.82.155 1.54.481 2.16.978a4.89 4.89 0 011.429 1.88 5.88 5.88 0 01.499 2.392c0 1.513-.479 2.73-1.436 3.65-.957.921-2.351 1.505-4.183 1.75v.056c1.34.592 2.597 1.809 3.773 3.65zm-15.012-11.225h5.688c1.148 0 2.057-.098 2.727-.294a2.92 2.92 0 001.606-1.142 3.206 3.206 0 00.602-1.9c0-.911-.333-1.686-.998-2.324-.665-.638-1.764-.957-3.295-.957h-6.33z"
            ></path>
          </g>
          <g transform="translate(15.826)">
            <rect
              width="74.286"
              height="74.286"
              x="451.147"
              y="700.51"
              fill="#c83737"
              stroke="none"
              strokeLinecap="round"
              strokeLinejoin="round"
              strokeWidth="0.5"
              opacity="1"
              ry="9.498"
            ></rect>
            <path
              fill="#fff"
              d="M474.77 712.639h-6.63v17.664h-2.667v-17.664h-6.576v-2.379h15.873z"
            ></path>
          </g>
          <g transform="translate(18.991)">
            <rect
              width="74.286"
              height="74.286"
              x="527.017"
              y="700.51"
              fill="#c83737"
              stroke="none"
              strokeLinecap="round"
              strokeLinejoin="round"
              strokeWidth="0.5"
              opacity="1"
              ry="9.498"
            ></rect>
            <path
              fill="#fff"
              d="M555.142 710.26l-7.984 11.553v8.49h-2.666v-8.49l-7.725-11.553h3.227l4.402 6.74c.446.684.975 1.582 1.586 2.694.383-.748 2.406-3.892 6.07-9.434z"
            ></path>
          </g>
          <g transform="translate(22.157)">
            <rect
              width="74.286"
              height="74.286"
              x="602.887"
              y="700.51"
              fill="#c83737"
              stroke="none"
              strokeLinecap="round"
              strokeLinejoin="round"
              strokeWidth="0.5"
              opacity="1"
              ry="9.498"
            ></rect>
            <path
              fill="#fff"
              d="M628.4 721.854c0 1.03-.056 1.982-.17 2.857-.114.875-.415 1.775-.903 2.7-.487.926-1.28 1.696-2.379 2.311-1.098.615-2.563.923-4.395.923-1.787 0-3.227-.273-4.32-.82-1.094-.547-1.896-1.254-2.407-2.12a7.491 7.491 0 01-.977-2.706 21.245 21.245 0 01-.212-3.145V710.26h2.652v11.553c0 1.203.087 2.24.26 3.11.173.87.629 1.643 1.367 2.318.739.674 1.878 1.012 3.418 1.012 1.559 0 2.73-.27 3.514-.807.784-.538 1.294-1.256 1.531-2.153.237-.898.356-2.058.356-3.48V710.26h2.666z"
            ></path>
          </g>
          <g transform="translate(25.322)">
            <rect
              width="74.286"
              height="74.286"
              x="678.757"
              y="700.51"
              fill="#ff7f2a"
              stroke="none"
              strokeLinecap="round"
              strokeLinejoin="round"
              strokeWidth="0.5"
              opacity="1"
              ry="9.498"
            ></rect>
            <path fill="#fff" d="M691.173 730.303h-2.666V710.26h2.666z"></path>
          </g>
          <g transform="translate(28.488)">
            <rect
              width="74.286"
              height="74.286"
              x="754.627"
              y="700.51"
              fill="#ffd42a"
              stroke="none"
              strokeLinecap="round"
              strokeLinejoin="round"
              strokeWidth="0.5"
              opacity="1"
              ry="9.498"
            ></rect>
            <path
              fill="#fff"
              d="M773.989 710.26c2.807 0 5.104.953 6.89 2.858 1.787 1.905 2.68 4.416 2.68 7.533 0 3.108-.898 5.608-2.694 7.499-1.795 1.891-4.087 2.837-6.877 2.837-2.889 0-5.213-.98-6.972-2.94-1.76-1.96-2.639-4.352-2.639-7.178 0-3.29.891-5.88 2.673-7.772 1.782-1.891 4.095-2.837 6.938-2.837zm-.028 18.457c2.033 0 3.68-.71 4.943-2.133 1.262-1.422 1.898-3.4 1.907-5.933 0-2.607-.645-4.612-1.935-6.016-1.29-1.403-2.91-2.105-4.86-2.105-2.005 0-3.655.688-4.95 2.064-1.294 1.376-1.94 3.486-1.94 6.33 0 2.324.633 4.204 1.9 5.64 1.267 1.435 2.912 2.153 4.935 2.153z"
            ></path>
          </g>
          <g transform="translate(31.653)">
            <rect
              width="74.286"
              height="74.286"
              x="830.497"
              y="700.51"
              fill="#8dd35f"
              stroke="none"
              strokeLinecap="round"
              strokeLinejoin="round"
              strokeWidth="0.5"
              opacity="1"
              ry="9.498"
            ></rect>
            <path
              fill="#fff"
              d="M840.247 710.26h7.56c1.195 0 2.222.06 3.084.178a5.62 5.62 0 012.399.923 4.657 4.657 0 011.675 2.023c.378.852.567 1.743.567 2.673 0 1.85-.595 3.334-1.784 4.45-1.19 1.117-3.097 1.675-5.722 1.675H842.9v8.12h-2.652zm2.652 9.543h5.155c3.153 0 4.73-1.221 4.73-3.664 0-.802-.205-1.51-.615-2.126-.41-.615-.914-.998-1.51-1.148-.598-.15-1.484-.226-2.66-.226h-5.1z"
            ></path>
          </g>
          <g transform="translate(34.819)">
            <rect
              width="74.286"
              height="74.286"
              x="906.367"
              y="700.51"
              fill="#8dd35f"
              stroke="none"
              strokeLinecap="round"
              strokeLinejoin="round"
              strokeWidth="0.5"
              opacity="1"
              ry="9.498"
            ></rect>
            <g fill="#fff" transform="translate(-42.67 255.745)">
              <path d="M966.69 477.69h-.752c-.747 0-1.392-.066-1.935-.198-.542-.132-1.018-.463-1.428-.991-.41-.53-.668-1.158-.773-1.887-.105-.73-.166-1.942-.184-3.637 0-1.185-.048-2.124-.144-2.816-.096-.693-.348-1.276-.759-1.75-.41-.474-1.052-.72-1.927-.739v-2.228c.875-.018 1.517-.262 1.927-.731.41-.47.663-1.05.76-1.744.095-.692.143-1.631.143-2.816.018-1.686.077-2.892.177-3.616.1-.725.354-1.356.76-1.894.405-.538.881-.875 1.428-1.012.547-.136 1.199-.205 1.955-.205h.752v2.133h-.424c-.939 0-1.565.171-1.88.513-.314.342-.471 1.114-.471 2.317 0 1.996-.044 3.441-.13 4.334-.087.893-.328 1.643-.725 2.25-.396.605-1.064 1.136-2.003 1.592.93.374 1.638.98 2.126 1.818.488.839.732 2.293.732 4.362 0 1.905.04 3.071.123 3.5.082.428.239.754.471.977.233.224.818.335 1.757.335h.424z"></path>
              <path d="M966.39 512.39h-5.441v-25.621h5.441v2.037h-2.98v21.533h2.98z"></path>
            </g>
          </g>
          <g transform="translate(38.094)">
            <rect
              width="74.286"
              height="74.286"
              x="982.127"
              y="700.51"
              fill="#8dd35f"
              stroke="none"
              strokeLinecap="round"
              strokeLinejoin="round"
              strokeWidth="0.5"
              opacity="1"
              ry="9.498"
            ></rect>
            <g fill="#fff" transform="translate(-45.295 255.746)">
              <path d="M1045.8 465.67c-.875.018-1.515.262-1.92.731-.407.47-.657 1.044-.753 1.723-.096.68-.148 1.63-.157 2.85-.018 1.678-.077 2.879-.178 3.603-.1.725-.353 1.356-.759 1.894-.405.538-.882.875-1.428 1.012-.547.136-1.199.205-1.955.205h-.752v-2.133h.423c.94 0 1.566-.171 1.88-.513.315-.342.472-1.11.472-2.304 0-2.005.043-3.454.13-4.347.087-.893.328-1.643.724-2.25.397-.605 1.065-1.132 2.003-1.578-.93-.383-1.638-.994-2.126-1.832-.487-.839-.731-2.293-.731-4.362 0-1.905-.041-3.069-.123-3.493-.082-.424-.24-.75-.472-.977-.232-.228-.818-.342-1.757-.342h-.423v-2.133h.752c.756 0 1.41.07 1.961.212.552.141 1.035.488 1.45 1.039.414.551.67 1.183.765 1.894.096.71.144 1.905.144 3.582 0 1.175.048 2.11.143 2.802.096.693.35 1.276.76 1.75.41.474 1.052.72 1.927.739z"></path>
              <path d="M1042.6 512.39h-5.428v-2.05h2.967v-21.534h-2.967v-2.037h5.428z"></path>
            </g>
          </g>
          <g transform="translate(40)">
            <rect
              width="123.05"
              height="74.286"
              x="1059.257"
              y="700.51"
              fill="#999"
              stroke="none"
              strokeLinecap="round"
              strokeLinejoin="round"
              strokeWidth="0.643"
              opacity="1"
              ry="9.498"
            ></rect>
            <g fill="#fff" transform="translate(-45.385 258.029)">
              <path d="M1116.454 477.39h-2.133v-25.621h2.133z"></path>
              <path d="M1122.1 507.48h-1.982l-5.797-20.713h1.982z"></path>
            </g>
          </g>
          <rect
            width="189.12"
            height="74.286"
            x="1033.157"
            y="614.64"
            fill="#999"
            stroke="none"
            strokeLinecap="round"
            strokeLinejoin="round"
            strokeWidth="0.798"
            opacity="1"
            ry="9.498"
          ></rect>
          <rect
            width="150.24"
            height="74.286"
            x="7.143"
            y="785.36"
            fill="#999"
            stroke="none"
            strokeLinecap="round"
            strokeLinejoin="round"
            strokeWidth="0.711"
            opacity="1"
            ry="9.498"
          ></rect>
          <rect
            width="176.396"
            height="74.286"
            x="1045.881"
            y="785.36"
            fill="#999"
            stroke="none"
            strokeLinecap="round"
            strokeLinejoin="round"
            strokeWidth="0.798"
            opacity="1"
            ry="9.498"
          ></rect>
          <g transform="translate(4.302)">
            <rect
              width="74.286"
              height="74.286"
              x="159.027"
              y="785.36"
              fill="#55d400"
              stroke="none"
              strokeLinecap="round"
              strokeLinejoin="round"
              strokeWidth="0.5"
              opacity="1"
              ry="9.498"
            ></rect>
            <path
              fill="#fff"
              d="M187.507 815.153h-2.994l-2.351-6.098h-8.368l-2.214 6.098h-2.803l7.697-20.043h2.858zm-6.152-8.203c-1.64-4.339-2.566-6.802-2.775-7.39a28.925 28.925 0 01-.698-2.358h-.068a22.88 22.88 0 01-1.025 3.746l-2.243 6.002z"
            ></path>
          </g>
          <g transform="translate(8.714)">
            <rect
              width="74.286"
              height="74.286"
              x="234.847"
              y="785.36"
              fill="#ffea00"
              fillOpacity="1"
              stroke="none"
              strokeLinecap="round"
              strokeLinejoin="round"
              strokeWidth="0.5"
              opacity="1"
              ry="9.498"
            ></rect>
            <path
              fill="#fff"
              d="M257.394 801.33c-.11-1.275-.57-2.235-1.381-2.877-.811-.643-1.973-.964-3.486-.964-1.368 0-2.48.255-3.336.766-.857.51-1.286 1.253-1.286 2.228 0 .866.33 1.51.992 1.935.66.423 1.925.845 3.794 1.264 1.658.365 3.012.739 4.06 1.121a6.795 6.795 0 012.694 1.785c.747.806 1.12 1.889 1.12 3.247 0 1.722-.685 3.153-2.057 4.293-1.372 1.139-3.16 1.709-5.366 1.709-2.816 0-4.924-.63-6.323-1.887-1.4-1.258-2.14-2.89-2.222-4.895l2.516-.218c.118 1.604.738 2.773 1.859 3.506 1.121.734 2.475 1.101 4.06 1.101 1.486 0 2.687-.305 3.603-.916.916-.61 1.374-1.44 1.374-2.488 0-1.094-.478-1.892-1.435-2.393-.957-.501-2.564-.996-4.82-1.483-2.256-.488-3.88-1.174-4.874-2.058-.993-.884-1.49-2.032-1.49-3.445 0-1.604.629-2.93 1.887-3.979 1.258-1.048 2.971-1.572 5.14-1.572 2.224 0 4.013.522 5.367 1.565 1.353 1.044 2.07 2.527 2.153 4.45z"
            ></path>
          </g>
          <g transform="translate(13.126)">
            <rect
              width="74.286"
              height="74.286"
              x="310.667"
              y="785.36"
              fill="#f60"
              stroke="none"
              strokeLinecap="round"
              strokeLinejoin="round"
              strokeWidth="0.5"
              opacity="1"
              ry="9.498"
            ></rect>
            <path
              fill="#fff"
              d="M320.417 795.11h6.918c1.212 0 2.256.062 3.13.185a6.636 6.636 0 012.51.902c.797.478 1.494 1.137 2.091 1.976.597.838 1.067 1.802 1.409 2.891.341 1.09.512 2.409.512 3.958 0 2.953-.701 5.38-2.105 7.28-1.404 1.9-3.82 2.851-7.246 2.851h-7.219zm2.652 17.664h4.293c.875 0 1.657-.055 2.345-.164.688-.11 1.385-.406 2.092-.889.706-.483 1.292-1.276 1.757-2.379.465-1.102.697-2.56.697-4.375 0-1.002-.089-1.939-.267-2.81a6.616 6.616 0 00-.984-2.378c-.479-.716-1.028-1.24-1.648-1.572-.62-.333-1.223-.536-1.811-.609-.588-.073-1.342-.11-2.263-.11h-4.21z"
            ></path>
          </g>
          <g transform="translate(17.538)">
            <rect
              width="74.286"
              height="74.286"
              x="386.487"
              y="785.36"
              fill="#d40000"
              stroke="none"
              strokeLinecap="round"
              strokeLinejoin="round"
              strokeWidth="0.5"
              opacity="1"
              ry="9.498"
            ></rect>
            <path
              fill="#fff"
              d="M409.758 797.49H398.89v6.206h9.42v2.379h-9.42v9.078h-2.652V795.11h13.521z"
            ></path>
            <g fill="#fff" transform="matrix(1.141 0 0 1 -580.194 736.216)">
              <path d="M886.94 113.43h-14.328v-1.395h14.328z"></path>
            </g>
          </g>
          <g transform="translate(21.96)">
            <rect
              width="74.286"
              height="74.286"
              x="462.297"
              y="785.36"
              fill="#c83737"
              stroke="none"
              strokeLinecap="round"
              strokeLinejoin="round"
              strokeWidth="0.5"
              opacity="1"
              ry="9.498"
            ></rect>
            <path
              fill="#fff"
              d="M490.586 812.692c-2.525 2.097-5.286 3.145-8.285 3.145-3.072 0-5.549-.937-7.43-2.81-1.883-1.873-2.824-4.364-2.824-7.472 0-1.895.385-3.661 1.155-5.297.77-1.636 1.905-2.903 3.405-3.801 1.499-.898 3.333-1.347 5.502-1.347 2.252 0 4.059.495 5.421 1.483 1.363.99 2.281 2.473 2.755 4.45l-2.379.67c-.373-1.44-1.043-2.522-2.01-3.247-.966-.724-2.228-1.086-3.786-1.086-2.416 0-4.239.738-5.47 2.214-1.23 1.477-1.845 3.41-1.845 5.797 0 1.787.299 3.272.896 4.457a5.98 5.98 0 002.652 2.687c1.171.606 2.445.909 3.821.909 2.097 0 4.047-.688 5.852-2.064v-3.72h-5.906v-2.392h8.476z"
            ></path>
          </g>
          <g transform="translate(26.372)">
            <rect
              width="74.286"
              height="74.286"
              x="538.117"
              y="785.36"
              fill="#c83737"
              stroke="none"
              strokeLinecap="round"
              strokeLinejoin="round"
              strokeWidth="0.5"
              opacity="1"
              ry="9.498"
            ></rect>
            <path
              fill="#fff"
              d="M563.603 815.153h-2.666v-9.434H550.52v9.434h-2.652V795.11h2.652v8.23h10.418v-8.23h2.666z"
            ></path>
          </g>
          <g transform="translate(30.784)">
            <rect
              width="74.286"
              height="74.286"
              x="613.937"
              y="785.36"
              fill="#d40000"
              stroke="none"
              strokeLinecap="round"
              strokeLinejoin="round"
              strokeWidth="0.5"
              opacity="1"
              ry="9.498"
            ></rect>
            <path
              fill="#fff"
              d="M634.693 808.741c0 2.452-.495 4.19-1.484 5.216-.989 1.026-2.367 1.538-4.135 1.538-1.796 0-3.143-.503-4.04-1.51-.898-1.008-1.347-2.523-1.347-4.546l2.379-.329c.018 1.331.278 2.33.78 2.995.5.665 1.243.998 2.228.998.902 0 1.572-.215 2.01-.643.437-.428.706-.923.806-1.483.1-.56.15-1.26.15-2.099V795.11h2.653z"
            ></path>
            <g fill="#fff" transform="matrix(1.141 0 0 1 -352.744 736.216)">
              <path d="M886.94 113.43h-14.328v-1.395h14.328z"></path>
            </g>
          </g>
          <g transform="translate(35.196)">
            <rect
              width="74.286"
              height="74.286"
              x="689.757"
              y="785.36"
              fill="#f60"
              stroke="none"
              strokeLinecap="round"
              strokeLinejoin="round"
              strokeWidth="0.5"
              opacity="1"
              ry="9.498"
            ></rect>
            <path
              fill="#fff"
              d="M716.077 815.153h-3.5l-7.11-10.13-3.308 3.185v6.945h-2.652V795.11h2.652v9.94l9.967-9.94h3.582l-8.394 8.121z"
            ></path>
          </g>
          <g transform="translate(39.608)">
            <rect
              width="74.286"
              height="74.286"
              x="765.577"
              y="785.36"
              fill="#ffea00"
              fillOpacity="1"
              stroke="none"
              strokeLinecap="round"
              strokeLinejoin="round"
              strokeWidth="0.5"
              opacity="1"
              ry="9.498"
            ></rect>
            <path
              fill="#fff"
              d="M787.864 815.153h-12.537V795.11h2.652v17.664h9.885z"
            ></path>
          </g>
          <g transform="translate(44.02)">
            <rect
              width="74.286"
              height="74.286"
              x="841.397"
              y="785.36"
              fill="#55d400"
              stroke="none"
              strokeLinecap="round"
              strokeLinejoin="round"
              strokeWidth="0.5"
              opacity="1"
              ry="9.498"
            ></rect>
            <g fill="#fff" transform="translate(-13.325 -1.587)">
              <path d="M867.357 799.5h-2.803v-2.803h2.803zm0 11.703h-2.803V808.4h2.803z"></path>
              <path d="M867.439 834.5h-2.803v-2.803h2.803zm0 11.703c0 1.158-.221 2.042-.663 2.652-.442.611-.987 1.044-1.634 1.3l-.67-1.04c1.021-.437 1.536-1.408 1.545-2.912h-1.38V843.4h2.802z"></path>
            </g>
          </g>
          <g transform="translate(48.432)">
            <rect
              width="74.286"
              height="74.286"
              x="917.217"
              y="785.36"
              fill="#8dd35f"
              stroke="none"
              strokeLinecap="round"
              strokeLinejoin="round"
              strokeWidth="0.5"
              opacity="1"
              ry="9.498"
            ></rect>
            <g fill="#fff" transform="translate(9.425 3.958)">
              <path d="M925.157 794.42l-.615 3.842h-1.518l-.67-3.842v-3.268h2.803zm-4.813 0l-.615 3.842h-1.517l-.67-3.842v-3.268h2.802z"></path>
              <path d="M920.618 833.27l-.67-3.842v-3.267h2.803v3.267l-.616 3.842z"></path>
            </g>
          </g>
          <rect
            width="182.02"
            height="74.286"
            x="7.143"
            y="870.21"
            fill="#999"
            stroke="none"
            strokeLinecap="round"
            strokeLinejoin="round"
            strokeWidth="0.783"
            opacity="1"
            ry="9.498"
          ></rect>
          <rect
            width="228.88"
            height="74.286"
            x="993.427"
            y="870.21"
            fill="#999"
            stroke="none"
            strokeLinecap="round"
            strokeLinejoin="round"
            strokeWidth="0.878"
            opacity="1"
            ry="9.498"
          ></rect>
          <g transform="translate(3.518)">
            <rect
              width="74.286"
              height="74.286"
              x="191.227"
              y="870.21"
              fill="#8dd35f"
              stroke="none"
              strokeLinecap="round"
              strokeLinejoin="round"
              strokeWidth="0.5"
              opacity="1"
              ry="9.498"
            ></rect>
            <path
              fill="#fff"
              d="M216.823 900.003h-15.846v-2.488l10.268-12.797c0-.027.242-.326.725-.896a24.72 24.72 0 011.353-1.483h-11.197v-2.379h14.355v2.379l-11.252 13.85-1.203 1.436h12.797z"
            ></path>
          </g>
          <g transform="translate(7.186)">
            <rect
              width="74.286"
              height="74.286"
              x="267.427"
              y="870.21"
              fill="#ffd42a"
              stroke="none"
              strokeLinecap="round"
              strokeLinejoin="round"
              strokeWidth="0.5"
              opacity="1"
              ry="9.498"
            ></rect>
            <path
              fill="#fff"
              d="M295.552 900.003h-3.281l-4.02-5.688c-.984-1.394-1.604-2.329-1.86-2.802h-.054c0 .164-1.987 2.994-5.96 8.49h-3.2l7.766-10.445-6.864-9.598h3.158l4.225 5.988c.456.647.793 1.19 1.012 1.627.355-.61 2.233-3.149 5.633-7.615h2.884l-7.027 9.434z"
            ></path>
          </g>
          <g transform="translate(10.857)">
            <rect
              width="74.286"
              height="74.286"
              x="343.624"
              y="870.21"
              fill="#ff7f2a"
              stroke="none"
              strokeLinecap="round"
              strokeLinejoin="round"
              strokeWidth="0.5"
              opacity="1"
              ry="9.498"
            ></rect>
            <path
              fill="#fff"
              d="M371.08 893.987c-.584 2.252-1.603 3.931-3.056 5.039-1.454 1.107-3.197 1.66-5.23 1.66-3.281 0-5.671-1.027-7.17-3.082-1.5-2.056-2.25-4.528-2.25-7.417 0-3.2.882-5.704 2.646-7.513 1.763-1.81 4.03-2.714 6.802-2.714 1.95 0 3.618.497 5.003 1.49 1.386.994 2.357 2.448 2.913 4.362l-2.598.615c-.438-1.395-1.103-2.443-1.996-3.145-.894-.702-2.01-1.052-3.35-1.052-2.187 0-3.846.717-4.976 2.153-1.13 1.435-1.696 3.36-1.696 5.776 0 2.79.595 4.863 1.784 6.221 1.19 1.358 2.742 2.037 4.656 2.037 1.567 0 2.841-.424 3.821-1.271.98-.848 1.666-2.124 2.058-3.829z"
            ></path>
          </g>
          <g transform="translate(14.523)">
            <rect
              width="74.286"
              height="74.286"
              x="419.827"
              y="870.21"
              fill="#c83737"
              stroke="none"
              strokeLinecap="round"
              strokeLinejoin="round"
              strokeWidth="0.5"
              opacity="1"
              ry="9.498"
            ></rect>
            <path
              fill="#fff"
              d="M447.897 879.96l-7.847 20.043h-2.707l-7.766-20.043h2.857l5.21 14.561c.391.93.738 2.019 1.038 3.268h.055c.274-1.067.62-2.156 1.04-3.268l5.427-14.561z"
            ></path>
          </g>
          <g transform="translate(18.19)">
            <rect
              width="74.286"
              height="74.286"
              x="496.027"
              y="870.21"
              fill="#c83737"
              stroke="none"
              strokeLinecap="round"
              strokeLinejoin="round"
              strokeWidth="0.5"
              opacity="1"
              ry="9.498"
            ></rect>
            <path
              fill="#fff"
              d="M517.166 889.339c1.257.383 2.199 1.005 2.823 1.866.624.862.936 1.853.936 2.974a5.88 5.88 0 01-.847 3.09c-.565.938-1.368 1.629-2.407 2.07-1.039.443-2.447.664-4.224.664h-7.67V879.96h7.52c2.433 0 4.149.529 5.147 1.586.998 1.057 1.497 2.233 1.497 3.527 0 .875-.23 1.684-.69 2.427-.46.743-1.156 1.356-2.085 1.839zm-8.737-.984h4.348c.893 0 1.643-.05 2.249-.15a3.065 3.065 0 001.606-.794c.465-.428.698-1.093.698-1.996 0-.948-.235-1.647-.705-2.098a3.036 3.036 0 00-1.681-.828c-.652-.1-1.488-.15-2.509-.15h-4.006zm0 9.27h4.99c1.787 0 3.027-.306 3.72-.917.692-.61 1.038-1.454 1.038-2.53 0-1.084-.369-1.93-1.107-2.535-.738-.606-2.069-.91-3.992-.91h-4.649z"
            ></path>
          </g>
          <g transform="translate(21.849)">
            <rect
              width="74.286"
              height="74.286"
              x="572.237"
              y="870.21"
              fill="#c83737"
              stroke="none"
              strokeLinecap="round"
              strokeLinejoin="round"
              strokeWidth="0.5"
              opacity="1"
              ry="9.498"
            ></rect>
            <path
              fill="#fff"
              d="M597.751 900.003h-2.72l-10.474-15.736h-.054v15.736h-2.516V879.96h2.707l10.473 15.736h.055V879.96h2.529z"
            ></path>
          </g>
          <g transform="translate(25.517)">
            <rect
              width="74.286"
              height="74.286"
              x="648.437"
              y="870.21"
              fill="#c83737"
              stroke="none"
              strokeLinecap="round"
              strokeLinejoin="round"
              strokeWidth="0.5"
              opacity="1"
              ry="9.498"
            ></rect>
            <path
              fill="#fff"
              d="M677.246 900.003h-2.516v-16.775h-.055l-5.77 16.775h-2.378l-5.742-17.049h-.082v17.05h-2.516V879.96h3.965l4.744 14.191c.529 1.577.834 2.566.916 2.967h.055c.246-.775.601-1.846 1.066-3.213l4.785-13.945h3.528z"
            ></path>
          </g>
          <g transform="translate(29.185)">
            <rect
              width="74.286"
              height="74.286"
              x="724.637"
              y="870.21"
              fill="#ff7f2a"
              stroke="none"
              strokeLinecap="round"
              strokeLinejoin="round"
              strokeWidth="0.5"
              opacity="1"
              ry="9.498"
            ></rect>
            <g fill="#fff" transform="translate(-1.928)">
              <path d="M749.577 893.11l-13.262-5.66v-2.297l13.262-5.606v2.448L739.05 886.3l10.527 4.362z"></path>
              <path d="M742.827 931.21c0 1.158-.221 2.042-.663 2.652-.442.611-.987 1.044-1.634 1.3l-.67-1.04c1.021-.437 1.536-1.408 1.545-2.912h-1.38v-2.803h2.802z"></path>
            </g>
          </g>
          <g transform="translate(32.854)">
            <rect
              width="74.286"
              height="74.286"
              x="800.837"
              y="870.21"
              fill="#ffd42a"
              stroke="none"
              strokeLinecap="round"
              strokeLinejoin="round"
              strokeWidth="0.5"
              opacity="1"
              ry="9.498"
            ></rect>
            <g fill="#fff" transform="translate(-4.208)">
              <path d="M828.057 887.51l-13.262 5.606v-2.448l10.527-4.306L814.795 882v-2.447l13.262 5.66z"></path>
              <path d="M820.457 931.21h-2.803v-2.803h2.803z"></path>
            </g>
          </g>
          <g transform="translate(36.522)">
            <rect
              width="74.286"
              height="74.286"
              x="877.037"
              y="870.21"
              fill="#8dd35f"
              stroke="none"
              strokeLinecap="round"
              strokeLinejoin="round"
              strokeWidth="0.5"
              opacity="1"
              ry="9.498"
            ></rect>
            <g fill="#fff" transform="translate(-6.03 3.495)">
              <path d="M893.017 881.63c.21-1.85.889-3.279 2.037-4.286 1.149-1.007 2.634-1.51 4.457-1.51 1.878 0 3.42.516 4.628 1.551 1.208 1.035 1.812 2.336 1.812 3.903 0 .784-.176 1.545-.527 2.283-.35.739-1.182 1.687-2.495 2.844-1.003.894-1.634 1.598-1.894 2.113-.26.515-.403 1.437-.43 2.768h-2.352c0-1.057.039-1.83.116-2.317.078-.488.237-.964.479-1.429.241-.465.556-.902.943-1.312.388-.41.932-.921 1.634-1.532.893-.793 1.452-1.415 1.675-1.866.223-.451.335-.909.335-1.374 0-.957-.378-1.798-1.135-2.522-.757-.725-1.677-1.087-2.762-1.087-2.205 0-3.536 1.349-3.992 4.047zm7.875 14.588h-2.803v-2.803h2.803z"></path>
              <path d="M900.597 911.17l-5.797 20.713h-1.982l5.797-20.713z"></path>
            </g>
          </g>
          <rect
            width="110.217"
            height="74.255"
            x="975.865"
            y="955.086"
            fill="#999"
            stroke="none"
            strokeLinecap="round"
            strokeLinejoin="round"
            strokeWidth="0.609"
            opacity="1"
            ry="9.494"
          ></rect>
          <rect
            width="128.222"
            height="74.255"
            x="7.15"
            y="955.086"
            fill="#999"
            stroke="none"
            strokeLinecap="round"
            strokeLinejoin="round"
            strokeWidth="0.657"
            opacity="1"
            ry="9.494"
          ></rect>
          <rect
            width="115.518"
            height="74.255"
            x="143.656"
            y="955.086"
            fill="#999"
            stroke="none"
            strokeLinecap="round"
            strokeLinejoin="round"
            strokeWidth="0.623"
            opacity="1"
            ry="9.494"
          ></rect>
          <rect
            width="112.374"
            height="74.255"
            x="267.458"
            y="955.086"
            fill="#999"
            stroke="none"
            strokeLinecap="round"
            strokeLinejoin="round"
            strokeWidth="0.615"
            opacity="1"
            ry="9.494"
          ></rect>
          <rect
            width="467.394"
            height="74.255"
            x="388.116"
            y="955.086"
            fill="#999"
            stroke="none"
            strokeLinecap="round"
            strokeLinejoin="round"
            strokeWidth="1.254"
            opacity="1"
            ry="9.494"
          ></rect>
          <rect
            width="103.787"
            height="74.255"
            x="863.794"
            y="955.086"
            fill="#999"
            stroke="none"
            strokeLinecap="round"
            strokeLinejoin="round"
            strokeWidth="0.591"
            opacity="1"
            ry="9.494"
          ></rect>
          <rect
            width="128.324"
            height="74.121"
            x="1094.367"
            y="955.152"
            fill="#999"
            stroke="none"
            strokeLinecap="round"
            strokeLinejoin="round"
            strokeWidth="0.656"
            opacity="1"
            ry="9.477"
          ></rect>
          <rect
            width="76.812"
            height="54.223"
            x="7.143"
            y="542.09"
            fill="#999"
            stroke="none"
            strokeLinecap="round"
            strokeLinejoin="round"
            strokeWidth="0.434"
            opacity="1"
            ry="6.933"
          ></rect>
          <g
            fill="#999"
            stroke="none"
            strokeLinecap="round"
            strokeLinejoin="round"
            strokeWidth="0.434"
            transform="translate(11.899)"
          >
            <g transform="translate(-6.667)">
              <rect
                width="76.812"
                height="54.223"
                x="124"
                y="542.09"
                opacity="1"
                ry="6.933"
              ></rect>
              <rect
                width="76.812"
                height="54.223"
                x="209.784"
                y="542.09"
                opacity="1"
                ry="6.933"
              ></rect>
              <rect
                width="76.812"
                height="54.223"
                x="295.568"
                y="542.09"
                opacity="1"
                ry="6.933"
              ></rect>
              <rect
                width="76.812"
                height="54.223"
                x="381.351"
                y="542.09"
                opacity="1"
                ry="6.933"
              ></rect>
            </g>
            <g transform="translate(372.774)">
              <rect
                width="76.812"
                height="54.223"
                x="124"
                y="542.09"
                opacity="1"
                ry="6.933"
              ></rect>
              <rect
                width="76.812"
                height="54.223"
                x="209.784"
                y="542.09"
                opacity="1"
                ry="6.933"
              ></rect>
              <rect
                width="76.812"
                height="54.223"
                x="295.568"
                y="542.09"
                opacity="1"
                ry="6.933"
              ></rect>
              <rect
                width="76.812"
                height="54.223"
                x="381.351"
                y="542.09"
                opacity="1"
                ry="6.933"
              ></rect>
            </g>
            <g transform="translate(752.215)">
              <rect
                width="76.812"
                height="54.223"
                x="124"
                y="542.09"
                opacity="1"
                ry="6.933"
              ></rect>
              <rect
                width="76.812"
                height="54.223"
                x="209.784"
                y="542.09"
                opacity="1"
                ry="6.933"
              ></rect>
              <rect
                width="76.812"
                height="54.223"
                x="295.568"
                y="542.09"
                opacity="1"
                ry="6.933"
              ></rect>
              <rect
                width="76.812"
                height="54.223"
                x="381.351"
                y="542.09"
                opacity="1"
                ry="6.933"
              ></rect>
            </g>
          </g>
          <g transform="translate(33.591)">
            <rect
              width="74.286"
              height="74.286"
              x="841.717"
              y="614.64"
              fill="#999"
              stroke="none"
              strokeLinecap="round"
              strokeLinejoin="round"
              strokeWidth="0.5"
              opacity="1"
              ry="9.498"
            ></rect>
            <g fill="#fff">
              <g transform="matrix(2.2338 0 0 1 -1097.713 519.245)">
                <path d="M886.94 113.43h-14.328v-1.395h14.328z"></path>
              </g>
              <g transform="matrix(1.141 0 0 1 -144.183 558.855)">
                <path d="M886.94 113.43h-14.328v-1.395h14.328z"></path>
              </g>
            </g>
          </g>
          <g transform="translate(36.756)">
            <rect
              width="74.286"
              height="74.286"
              x="917.477"
              y="614.64"
              fill="#999"
              stroke="none"
              strokeLinecap="round"
              strokeLinejoin="round"
              strokeWidth="0.5"
              opacity="1"
              ry="9.498"
            ></rect>
            <g fill="#fff">
              <g transform="translate(-16.791 540.953)">
                <path
                  fill="#fff"
                  d="M957.28 93.111h-5.482v5.482H949.5v-5.482h-5.483v-2.297h5.483v-5.482h2.297v5.482h5.482z"
                ></path>
              </g>
              <g transform="translate(-24.871 545.763)">
                <path
                  fill="#fff"
                  d="M965.36 125.42h-13.262v-2.297h13.262zm0 6.098h-13.262v-2.297h13.262z"
                ></path>
              </g>
            </g>
          </g>
        </g>
      </g>
    </svg>
